<svg width="24.000000" height="24.000000" viewBox="0 0 24 24" fill="none" xmlns="http://www.w3.org/2000/svg" xmlns:xlink="http://www.w3.org/1999/xlink">
	<desc>
			Created with Pixso.
	</desc>
	<defs/>
	<g style="mix-blend-mode:normal">
		<rect id="ic/public/menu.left_line" width="24.000000" height="24.000000" fill="#FFFFFF" fill-opacity="0"/>
		<mask id="mask_135_782" fill="white">
			<path id="形状结合" d="M20.25 3.25C20.6643 3.25 21 3.58582 21 4C21 4.37964 20.7178 4.69348 20.3518 4.74316L20.25 4.75L3.75 4.75C3.33569 4.75 3 4.41418 3 4C3 3.62036 3.28223 3.30652 3.64819 3.25684L3.75 3.25L20.25 3.25ZM7.75024 8.39697L7.75024 15.604C7.75024 16.049 7.21118 16.272 6.89624 15.958L3.50513 12.566C3.19214 12.254 3.19214 11.7469 3.50513 11.4349L6.89624 8.04297C7.21118 7.729 7.75024 7.95203 7.75024 8.39697ZM20.25 8.5835C20.6643 8.5835 21 8.91931 21 9.3335C21 9.71313 20.7178 10.027 20.3518 10.0767L20.25 10.0835L10.25 10.0835C9.83569 10.0835 9.5 9.74768 9.5 9.3335C9.5 8.95386 9.78223 8.64001 10.1482 8.59033L10.25 8.5835L20.25 8.5835ZM21 14.667C21 14.2528 20.6643 13.917 20.25 13.917L10.25 13.917L10.1482 13.9238C9.78223 13.9735 9.5 14.2874 9.5 14.667C9.5 15.0812 9.83569 15.417 10.25 15.417L20.25 15.417L20.3518 15.4102C20.7178 15.3605 21 15.0466 21 14.667ZM20.25 19.25C20.6643 19.25 21 19.5858 21 20C21 20.3796 20.7178 20.6935 20.3518 20.7432L20.25 20.75L3.75 20.75C3.33569 20.75 3 20.4142 3 20C3 19.6204 3.28223 19.3065 3.64819 19.2568L3.75 19.25L20.25 19.25Z" clip-rule="evenodd" fill="" fill-opacity="1.000000" fill-rule="evenodd"/>
		</mask>
		<path id="形状结合" d="M20.25 3.25C20.6643 3.25 21 3.58582 21 4C21 4.37964 20.7178 4.69348 20.3518 4.74316L20.25 4.75L3.75 4.75C3.33569 4.75 3 4.41418 3 4C3 3.62036 3.28223 3.30652 3.64819 3.25684L3.75 3.25L20.25 3.25ZM7.75024 8.39697L7.75024 15.604C7.75024 16.049 7.21118 16.272 6.89624 15.958L3.50513 12.566C3.19214 12.254 3.19214 11.7469 3.50513 11.4349L6.89624 8.04297C7.21118 7.729 7.75024 7.95203 7.75024 8.39697ZM20.25 8.5835C20.6643 8.5835 21 8.91931 21 9.3335C21 9.71313 20.7178 10.027 20.3518 10.0767L20.25 10.0835L10.25 10.0835C9.83569 10.0835 9.5 9.74768 9.5 9.3335C9.5 8.95386 9.78223 8.64001 10.1482 8.59033L10.25 8.5835L20.25 8.5835ZM21 14.667C21 14.2528 20.6643 13.917 20.25 13.917L10.25 13.917L10.1482 13.9238C9.78223 13.9735 9.5 14.2874 9.5 14.667C9.5 15.0812 9.83569 15.417 10.25 15.417L20.25 15.417L20.3518 15.4102C20.7178 15.3605 21 15.0466 21 14.667ZM20.25 19.25C20.6643 19.25 21 19.5858 21 20C21 20.3796 20.7178 20.6935 20.3518 20.7432L20.25 20.75L3.75 20.75C3.33569 20.75 3 20.4142 3 20C3 19.6204 3.28223 19.3065 3.64819 19.2568L3.75 19.25L20.25 19.25Z" clip-rule="evenodd" fill="#FFFFFF" fill-opacity="1.000000" fill-rule="evenodd" mask="url(#mask_135_782)"/>
		<path id="形状结合" d="" clip-rule="evenodd" fill="#979797" fill-opacity="0.000000" fill-rule="evenodd"/>
	</g>
</svg>
